<svg width="27" height="21" viewBox="0 0 27 21" fill="none" xmlns="http://www.w3.org/2000/svg">
<path d="M25.7755 0.6385C25.2307 0.179707 24.5234 -0.0470221 23.8091 0.00814424C23.0947 0.0633106 22.4319 0.395858 21.9662 0.932697L10.3327 14.3473L4.07418 9.19597C3.82642 8.98584 3.53876 8.82635 3.22794 8.72679C2.91711 8.62723 2.58931 8.58958 2.26359 8.61604C1.93788 8.64249 1.62074 8.73251 1.33063 8.88087C1.04051 9.02923 0.783195 9.23297 0.573642 9.48025C0.36409 9.72752 0.206478 10.0134 0.10997 10.3213C0.0134618 10.6291 -0.0200174 10.9528 0.011478 11.2736C0.0429734 11.5943 0.138815 11.9057 0.293432 12.1896C0.448049 12.4734 0.658357 12.7242 0.91213 12.9272L9.29705 19.83C9.5556 20.0425 9.85577 20.2003 10.1789 20.2935C10.502 20.3866 10.8411 20.4132 11.175 20.3715C11.5292 20.3445 11.8745 20.2489 12.1912 20.0902C12.5078 19.9315 12.7896 19.7127 13.0205 19.4465L26.0721 4.39323C26.5369 3.85579 26.7665 3.15848 26.7105 2.45433C26.6544 1.75019 26.3173 1.09673 25.7732 0.637355" fill="#F4F4F4"/>
</svg>
